<svg id="圖層_1" data-name="圖層 1" xmlns="http://www.w3.org/2000/svg" viewBox="0 0 222 130.23"><defs><style>.cls-1{fill:#edab03;}.cls-2{fill:none;stroke:#edab03;}.cls-3{fill:#cd9400;}</style></defs><path class="cls-1" d="M43.19,108.44a6.59,6.59,0,0,0-1,.07l-.28,0a1.41,1.41,0,0,0-.27,0c-.19,0-.37.08-.57.13a15.92,15.92,0,0,0-2.47,1c-.83.39-1.67.82-2.42,1.23s-1.42.8-1.89,1.07l-.75.43.22.09a6.14,6.14,0,0,0,.62.21c.53.16,1.27.37,2.11.55l.64.13c.23,0,.46.06.69.09.47,0,.93.09,1.41.1a8.71,8.71,0,0,0,2.69-.33,6.73,6.73,0,0,0,3.42-2.41,7.57,7.57,0,0,0,1-1.65,4.75,4.75,0,0,0-1.48-.6,6.24,6.24,0,0,0-1.66-.2Z"/><path class="cls-1" d="M45.68,101.59a10.26,10.26,0,0,0-1.4-1.74,8.07,8.07,0,0,0-.8-.75l-.4-.33-.38-.33c-.5-.41-1-.74-1.29-1l-.53-.37v.82a18.85,18.85,0,0,0,.17,2,18.13,18.13,0,0,0,.51,2.54,9.9,9.9,0,0,0,1,2.32,3,3,0,0,0,.31.48,1.77,1.77,0,0,0,.16.22l.17.19a4.85,4.85,0,0,0,.72.64,4.22,4.22,0,0,0,.73.45,4.54,4.54,0,0,0,.68.3,5,5,0,0,0,1.53.22,10.16,10.16,0,0,0,0-1.91,10.41,10.41,0,0,0-.34-1.82l-.15-.48c-.06-.15-.12-.33-.19-.5a8.81,8.81,0,0,0-.47-1Z"/><path class="cls-1" d="M33.11,103.49l-.25-.23a6.22,6.22,0,0,0-.93-.69,4.47,4.47,0,0,0-.69-.35,7.22,7.22,0,0,0-.83-.31,6.52,6.52,0,0,0-2.11-.29c-.42,0-.84,0-1.28.08s-.9.11-1.35.19-.93.17-1.37.27l-1.3.28c-.83.18-1.55.36-2.08.49s-.85.23-.85.23.27.2.73.51c.22.15.51.33.82.52.15.1.31.19.5.3l.56.29c.38.19.8.38,1.22.56l.65.26.33.13.34.11a10.14,10.14,0,0,0,2.68.43,6.94,6.94,0,0,0,3.92-1.39,7.92,7.92,0,0,0,1-.9c.12-.13.24-.27.35-.41Z"/><path class="cls-1" d="M30.75,98.21a5.46,5.46,0,0,0,.91,1.84,2.9,2.9,0,0,0,.58.63,6.26,6.26,0,0,0,.59.46,5.92,5.92,0,0,0,1,.53,2.8,2.8,0,0,0,.31.09l.11,0a4.4,4.4,0,0,0,.18-.51,11.86,11.86,0,0,0,.31-1.31,8.93,8.93,0,0,0-.13-4A8.43,8.43,0,0,0,33.72,94a14.43,14.43,0,0,0-1.16-1.79c-.2-.25-.37-.51-.54-.73s-.31-.41-.44-.56a5.86,5.86,0,0,0-.42-.49s-.09.29-.2.79-.27,1.31-.36,2c-.05.4-.11.83-.14,1.26s0,.87,0,1.32A11.38,11.38,0,0,0,30.51,97a8,8,0,0,0,.24,1.18Z"/><path class="cls-1" d="M21.37,93.59a6.29,6.29,0,0,0-.7-.93,7.12,7.12,0,0,0-3.23-1.94l-.83-.19-.87-.17c-1.48-.23-3.16-.33-4.43-.41s-2.2-.09-2.2-.09.31.42.85,1A17.68,17.68,0,0,0,12.16,93c.13.12.28.23.41.33l.22.17.22.15c.31.21.62.4.93.58s.61.33.93.48a4.45,4.45,0,0,0,.93.32,6.81,6.81,0,0,0,4.14-.21A7.18,7.18,0,0,0,21.61,94a3,3,0,0,0-.24-.38Z"/><path class="cls-1" d="M21.92,91.55a4.6,4.6,0,0,0,.81.78,2.06,2.06,0,0,0,.37.23,9.21,9.21,0,0,0,1-1.6,8.94,8.94,0,0,0,1-3.85,8.21,8.21,0,0,0-.16-1.64c-.05-.28-.11-.54-.18-.81s-.14-.53-.21-.78c-.13-.44-.28-.86-.42-1.23,0-.1-.08-.18-.11-.28a2.77,2.77,0,0,0-.1-.26c-.06-.17-.12-.33-.18-.47-.23-.58-.41-.93-.41-.93s-.45.73-1,1.83c-.14.27-.27.57-.41.89l-.2.49c-.07.16-.12.33-.19.5a17.05,17.05,0,0,0-.59,2.12,8.19,8.19,0,0,0-.13.82,6.74,6.74,0,0,0,0,.77,5.67,5.67,0,0,0,.37,2,4.83,4.83,0,0,0,.83,1.38Z"/><path class="cls-1" d="M10.35,81.85a6.76,6.76,0,0,0,.9,0,6.88,6.88,0,0,0,1.85-.35,3.17,3.17,0,0,0-.12-.44c0-.14-.1-.3-.17-.48a5.56,5.56,0,0,0-.25-.61,6.07,6.07,0,0,0-.94-1.39l-.33-.36-.37-.36a6.9,6.9,0,0,0-.92-.69,11.2,11.2,0,0,0-1.13-.62c-.39-.2-.81-.4-1.25-.58-.85-.37-1.74-.71-2.55-1s-1.49-.55-2-.72L2.23,74s.13.33.35.83c.11.25.24.56.41.9s.37.69.59,1.07.47.77.73,1.16l.2.29c.07.09.15.18.22.28l.45.56a13.52,13.52,0,0,0,1,1c.17.16.33.3.51.44a4.81,4.81,0,0,0,.55.37,6.48,6.48,0,0,0,2.14.85,5.58,5.58,0,0,0,1,.12Z"/><path class="cls-1" d="M13.64,77.68a6.07,6.07,0,0,0,.42,1.57c.09.19.18.38.28.56a3,3,0,0,0,.29.41,3.11,3.11,0,0,0,.29.33,8.67,8.67,0,0,0,1.37-1.27c.18-.2.37-.42.55-.66a7.63,7.63,0,0,0,.56-.81,7.47,7.47,0,0,0,.87-1.93c.05-.17.08-.35.13-.54a5.54,5.54,0,0,0,.11-.56,10.54,10.54,0,0,0,.1-1.13c0-.74,0-1.49,0-2.14q0-.49-.09-.9c0-.27,0-.52-.06-.72-.05-.41-.1-.66-.1-.66s-.23.21-.58.56-.84.86-1.36,1.48a16.9,16.9,0,0,0-1.48,2.07,11.52,11.52,0,0,0-.62,1.15,6.83,6.83,0,0,0-.43,1.14,6.45,6.45,0,0,0-.21,1.08,4.19,4.19,0,0,0,0,.5v.25A1.38,1.38,0,0,0,13.64,77.68Z"/><path class="cls-1" d="M3.88,66.34a7.16,7.16,0,0,0,1,.59,7.65,7.65,0,0,0,1.79.64,7.24,7.24,0,0,0,1.86.16,5.19,5.19,0,0,0-.11-1.62c0-.24-.13-.5-.21-.76a5.77,5.77,0,0,0-.82-1.73A4.29,4.29,0,0,0,7,63.17l-.18-.23-.2-.23A29.16,29.16,0,0,0,2.5,59.24c-.69-.5-1.31-.93-1.76-1.24S0,57.51,0,57.51s0,.33.13.89.22,1.31.44,2.16a20,20,0,0,0,.93,2.63,5,5,0,0,0,.31.66c.12.2.23.41.36.61A8.18,8.18,0,0,0,3,65.52,5.44,5.44,0,0,0,3.88,66.34Z"/><path class="cls-1" d="M10.49,67.33a9.05,9.05,0,0,0,1.67-.85,9.68,9.68,0,0,0,1.45-1.12,7.14,7.14,0,0,0,.7-.75,8.2,8.2,0,0,0,.65-.87,9.25,9.25,0,0,0,.51-1c.15-.34.26-.7.39-1.06a15,15,0,0,0,.53-2.07c.12-.53.22-1.07.29-1.62s.06-.66.06-.66l-.7.38c-.43.25-1,.61-1.67,1.06a14.45,14.45,0,0,0-2,1.59,10.35,10.35,0,0,0-1.63,1.92,5,5,0,0,0-.48,1,7.21,7.21,0,0,0-.25.94,6.11,6.11,0,0,0-.08.86,4.77,4.77,0,0,0,.06.76,5.12,5.12,0,0,0,.49,1.49Z"/><path class="cls-1" d="M2.19,45.81a9.75,9.75,0,0,0,.19,1.08,8,8,0,0,0,.65,2,7,7,0,0,0,1.38,1.88A6.81,6.81,0,0,0,6,51.85a6.94,6.94,0,0,0,1.75.69,2.13,2.13,0,0,0,.13-.43A7.63,7.63,0,0,0,8.06,51,6.75,6.75,0,0,0,8,49.27a7.49,7.49,0,0,0-.67-2.07c-.12-.24-.26-.5-.41-.76l-.23-.38c-.09-.12-.16-.26-.24-.39C6,45,5.56,44.38,5.09,43.76S4.16,42.54,3.76,42C3,41,2.37,40.31,2.37,40.31s-.1.52-.19,1.33a11.12,11.12,0,0,0-.09,1.41c0,.53,0,1.1,0,1.69a7.6,7.6,0,0,0,.1,1.07Z"/><path class="cls-1" d="M15,50.52a2.47,2.47,0,0,0,.28-.28c.1-.09.19-.19.29-.3a5.38,5.38,0,0,0,.52-.64c.17-.22.31-.44.47-.68s.29-.47.42-.68c.23-.39.45-.78.62-1.13l.25-.52a3.8,3.8,0,0,1,.22-.45,10.07,10.07,0,0,0,.4-.93s-.83.14-2,.47c-.28.09-.62.18-.93.29s-.64.23-1,.37a13.22,13.22,0,0,0-2,1,7.19,7.19,0,0,0-1.27.94,5,5,0,0,0-1.69,3.2,4.27,4.27,0,0,0,0,1.13,3.11,3.11,0,0,0,.08.44,8.74,8.74,0,0,0,1.82-.35A8.67,8.67,0,0,0,15,50.52Z"/><path class="cls-1" d="M8.44,35a7.92,7.92,0,0,0,1.19,1.51,6.88,6.88,0,0,0,1.49,1.16c.09-.12.17-.24.25-.37a6.84,6.84,0,0,0,.5-1.06,6.2,6.2,0,0,0,.39-1.65c0-.34,0-.68,0-1a7.44,7.44,0,0,0-.1-1.15c-.08-.4-.18-.83-.31-1.27q-.09-.33-.21-.66c-.07-.21-.14-.44-.21-.66-.29-.89-.63-1.79-1-2.59l-.45-1.13-.37-.89c-.21-.51-.35-.81-.35-.81s-.15.3-.38.81a9.29,9.29,0,0,0-.37.92c-.12.35-.26.74-.39,1.16L8,28c-.06.22-.12.45-.17.68-.1.46-.17.95-.24,1.43a11,11,0,0,0-.09,1.41,7.7,7.7,0,0,0,.12,1.35A7.14,7.14,0,0,0,8.44,35Z"/><path class="cls-1" d="M19.62,37.33a8.44,8.44,0,0,0,.91-.66c.29-.24.56-.49.81-.74s.51-.48.73-.72l.61-.66.24-.29.22-.25c.27-.3.42-.5.42-.5s-.31,0-.8-.07a16.93,16.93,0,0,0-2,0,19.37,19.37,0,0,0-2.52.25l-.64.13c-.22,0-.41.11-.61.17a7.65,7.65,0,0,0-1.12.44A5.47,5.47,0,0,0,15,35a4.85,4.85,0,0,0-.71.65A6.42,6.42,0,0,0,13.39,37a4.67,4.67,0,0,0-.31,1.09,3.29,3.29,0,0,0-.05.44,8.33,8.33,0,0,0,1.86.19,9.15,9.15,0,0,0,1.81-.15,7.48,7.48,0,0,0,2-.62,7.92,7.92,0,0,0,.92-.58Z"/><path class="cls-1" d="M16.19,21.71a7.93,7.93,0,0,0,.73,1.78A7.37,7.37,0,0,0,18,25a5,5,0,0,0,1.12-1.17,5.59,5.59,0,0,0,.41-.66,6.63,6.63,0,0,0,.4-.8,7.61,7.61,0,0,0,.49-2.12,15.11,15.11,0,0,0,0-2.69c-.07-1-.14-1.9-.25-2.77s-.19-1.62-.27-2.17-.13-.88-.13-.88a1.37,1.37,0,0,0-.16.18l-.41.51c-.34.44-.8,1.06-1.28,1.78a22.54,22.54,0,0,0-1.29,2.49A9.82,9.82,0,0,0,16,19.38c0,.21,0,.43,0,.63a4.16,4.16,0,0,0,0,.61,6.77,6.77,0,0,0,.21,1.09Z"/><path class="cls-1" d="M26.37,27l.52-.19.26-.11.25-.12a12.34,12.34,0,0,0,1.87-1c.56-.33,1-.63,1.36-.86l.37-.28.15-.1-.2-.09L30.4,24c-.47-.16-1.13-.37-1.89-.56-.38-.09-.78-.19-1.21-.27l-.62-.1c-.2,0-.43-.06-.64-.07a9.8,9.8,0,0,0-2.48.05,5.22,5.22,0,0,0-1.89.74,4.8,4.8,0,0,0-.69.52c-.17.17-.34.36-.5.55a4.56,4.56,0,0,0-.77,1.36,8.45,8.45,0,0,0,1.74.7,9.06,9.06,0,0,0,1.78.36,8.5,8.5,0,0,0,2.08-.07A7.51,7.51,0,0,0,26.37,27Z"/><path class="cls-1" d="M28.37,13.78c.14.31.23.48.23.48l.11,0,.31-.13a5.66,5.66,0,0,0,1-.62,7.15,7.15,0,0,0,2.22-3.09,15.45,15.45,0,0,0,.53-1.67c.2-.75.35-1.54.49-2.3s.28-1.49.38-2.15C33.84,3,33.94,2,33.94,2s-.44.28-1.09.77c-.31.23-.7.52-1.1.86A15.92,15.92,0,0,0,30.54,4.8c-.25.25-.49.52-.72.79a1.68,1.68,0,0,0-.18.21L29.47,6c-.1.15-.21.29-.31.45a9.09,9.09,0,0,0-1,1.81,6.83,6.83,0,0,0-.31,1.18,7.08,7.08,0,0,0-.1,1.13A7.23,7.23,0,0,0,28,12.49a8.37,8.37,0,0,0,.4,1.29Z"/><path class="cls-1" d="M38.17,18.23c.44-.09.85-.2,1.24-.31s.73-.19,1-.28a7.61,7.61,0,0,0,.93-.33c-.54-.42-1.1-.81-1.67-1.18a18.27,18.27,0,0,0-1.75-1,13.78,13.78,0,0,0-2-.82A7.65,7.65,0,0,0,34.38,14a5.07,5.07,0,0,0-4.29,1.61l-.21.24-.06.1s.14.14.39.36a10.51,10.51,0,0,0,1.09.8,9.36,9.36,0,0,0,1.63.85,5.44,5.44,0,0,0,1,.33,8.87,8.87,0,0,0,1,.21,11.32,11.32,0,0,0,3.23-.25Z"/><path class="cls-1" d="M54,109.64l-1.06-.14-.65-.09-.71-.14L49.93,109l-1.78-.41c-.31-.08-.62-.14-.93-.23l-1-.28c-.63-.19-1.29-.36-1.93-.59a50.18,50.18,0,0,1-6.88-2.86L36.21,104l-.51-.27-.43-.24-.8-.48-.81-.47c-.51-.31-1.21-.79-2.07-1.34a55.7,55.7,0,0,1-5.86-4.66A58,58,0,0,1,20.57,91c-.17-.19-.31-.39-.45-.58l-.41-.52-.66-.86a5.81,5.81,0,0,1-.4-.57l-.15-.2L18,87.54c-.16-.25-.38-.54-.62-.89l-.75-1.19-.42-.68c-.15-.24-.28-.49-.43-.75l-.91-1.61-.89-1.77-.23-.47c-.08-.15-.14-.31-.21-.46-.13-.33-.27-.63-.41-.94a51.18,51.18,0,0,1-2.53-7.13c-.06-.25-.13-.49-.2-.72s-.12-.44-.17-.66c-.09-.4-.17-.77-.23-1.06l-.22-.93-.05-.23c0-.16-.07-.4-.13-.7s-.1-.65-.18-1.06-.17-.89-.22-1.4S9,63.82,9,63.24c0-.14,0-.29,0-.44s0-.31,0-.46c0-.31,0-.63-.08-1-.12-1.29-.12-2.67-.16-4s0-2.76.16-4.05c0-.33.06-.64.08-.95a2.32,2.32,0,0,1,0-.46c0-.15,0-.3,0-.45.07-.58.15-1.14.21-1.65s.15-1,.22-1.39.13-.77.18-1.07.1-.53.13-.69a1.82,1.82,0,0,0,.05-.24l.22-.93c.06-.29.14-.66.23-1.06l.17-.66c.05-.23.14-.46.2-.71a50.72,50.72,0,0,1,2.53-7.13c.14-.31.28-.63.41-.94s.15-.31.21-.47.15-.3.23-.46c.31-.6.61-1.2.89-1.77l.91-1.62c.15-.25.28-.51.43-.75l.42-.67L17.34,28c.23-.35.45-.66.62-.89.35-.49.54-.78.54-.78l.15-.2c.12-.19.26-.38.4-.56l.66-.86.41-.53c.14-.18.28-.38.45-.57a58.11,58.11,0,0,1,5.16-5.47,55.7,55.7,0,0,1,5.86-4.66c.86-.55,1.55-1,2.07-1.34l.81-.47.8-.48L35.7,11l.51-.27.38-.2h0a10,10,0,0,0,1.34,0,8.31,8.31,0,0,0,3.75-1A8.49,8.49,0,0,0,43.5,8.19l.78-.78c.25-.26.48-.52.68-.77.4-.5.77-.94,1-1.27a5,5,0,0,0,.37-.53l-.79,0a14.73,14.73,0,0,0-2,.08L43,5l-.62.1c-.42.06-.84.15-1.26.25a9.22,9.22,0,0,0-2.33.87A5.8,5.8,0,0,0,37.18,7.5a5.27,5.27,0,0,0-.77,1.42,5.72,5.72,0,0,0-.28,1.1v.15l-.14.07-.52.27-.43.26-.81.47s-.31.17-.81.48-1.23.8-2.09,1.36a53.42,53.42,0,0,0-5.93,4.7,57.81,57.81,0,0,0-5.2,5.52c-.17.2-.31.4-.46.58s-.28.37-.41.54l-.67.86c-.18.24-.31.45-.41.57l-.15.2s-.19.29-.54.78c-.16.26-.39.55-.62.91s-.48.76-.75,1.2c-.15.22-.29.45-.44.68s-.28.5-.43.76L14.39,32c-.33.58-.6,1.18-.89,1.8l-.24.46c-.06.15-.14.31-.21.47-.14.33-.28.63-.42,1a50.44,50.44,0,0,0-2.55,7.2c-.07.25-.14.49-.2.73s-.12.43-.17.65c-.09.42-.18.78-.25,1.08-.13.59-.21.93-.21.93l-.05.24c0,.16-.07.4-.13.7s-.11.66-.19,1.08-.16.89-.22,1.41-.14,1.08-.21,1.68c0,.14,0,.29,0,.45s0,.31,0,.46c0,.31,0,.63-.07,1-.13,1.3-.13,2.7-.18,4.09s.05,2.79.18,4.09c0,.33,0,.64.07,1,0,.16,0,.33,0,.46s0,.31,0,.45c.07.6.15,1.17.21,1.68s.16,1,.22,1.41.14.78.19,1.08.09.54.13.7l.05.24s.08.33.21.93c.07.3.16.66.25,1.07a6.36,6.36,0,0,0,.17.66c.06.23.13.47.2.73A52.16,52.16,0,0,0,12.63,79l.42,1,.21.47c.07.15.16.31.24.46.31.61.6,1.21.89,1.79s.62,1.12.93,1.65c.15.25.29.51.43.75s.29.47.44.69l.75,1.2c.23.36.45.66.62.9l.54.78a2.09,2.09,0,0,1,.15.21,5.72,5.72,0,0,0,.41.56l.67.87.41.53c.14.18.29.39.46.59a55.34,55.34,0,0,0,5.2,5.51,53.51,53.51,0,0,0,5.93,4.71c.86.57,1.57,1,2.09,1.36s.81.47.81.47L35,104l.43.25.52.27,1.24.66a50.69,50.69,0,0,0,7,2.89c.65.24,1.31.4,2,.6l1,.27c.31.1.62.16.93.24l1.8.42,1.63.3.72.13.66.09,1.07.14.93.12,0-.53Z"/><path class="cls-1" d="M48.16,109.12S55.3,111,56.89,118l-.2-8.2-8.07-1.13Z"/><path class="cls-1" d="M178.52,108.42a5.83,5.83,0,0,1,1,.07l.26,0,.28,0,.56.14a16,16,0,0,1,2.48,1c.83.39,1.67.82,2.43,1.23s1.41.8,1.88,1.07.75.43.75.43l-.22.08c-.14,0-.34.14-.62.22-.53.16-1.27.37-2.11.55l-.64.13-.69.08c-.46,0-.93.09-1.41.11a8.79,8.79,0,0,1-2.69-.33,6.7,6.7,0,0,1-3.41-2.41,7.45,7.45,0,0,1-1-1.65,5.2,5.2,0,0,1,1.49-.61,6.38,6.38,0,0,1,1.63-.19Z"/><path class="cls-1" d="M176,101.57a10.21,10.21,0,0,1,1.39-1.74q.4-.4.81-.75c.13-.12.27-.23.4-.33l.38-.33a12,12,0,0,1,1.29-1,5.72,5.72,0,0,1,.53-.37s0,.3,0,.82a18.85,18.85,0,0,1-.17,2,19.66,19.66,0,0,1-.5,2.54,10.74,10.74,0,0,1-1,2.32,3.94,3.94,0,0,1-.31.48,1.16,1.16,0,0,1-.16.21l-.18.2a7.2,7.2,0,0,1-.71.64,4.93,4.93,0,0,1-.73.45,3.48,3.48,0,0,1-.69.29,4.43,4.43,0,0,1-1.53.22,10.05,10.05,0,0,1,0-1.9,9.42,9.42,0,0,1,.34-1.82,3.82,3.82,0,0,1,.15-.48,4.29,4.29,0,0,1,.19-.5,6,6,0,0,1,.49-1Z"/><path class="cls-1" d="M188.6,103.47l.25-.23a6.29,6.29,0,0,1,.93-.7,6.38,6.38,0,0,1,.69-.35c.25-.11.54-.21.83-.31a6.91,6.91,0,0,1,2.12-.28c.4,0,.82,0,1.26.08s.91.11,1.36.19l1.38.26,1.29.28,2.09.5c.53.13.84.23.84.23s-.27.2-.73.5l-.81.53-.51.29-.55.3c-.39.19-.8.38-1.23.56l-.65.26-.33.13-.34.1a9.75,9.75,0,0,1-2.67.44,7,7,0,0,1-3.93-1.39,7.91,7.91,0,0,1-1-.91,4.55,4.55,0,0,1-.35-.4Z"/><path class="cls-1" d="M191,98.18a5.71,5.71,0,0,1-.91,1.85,4.34,4.34,0,0,1-.58.63,6.8,6.8,0,0,1-.6.46,5.19,5.19,0,0,1-1,.52l-.31.1-.12,0c-.06-.16-.12-.33-.17-.5a11.52,11.52,0,0,1-.31-1.32A9,9,0,0,1,187.1,96a8.86,8.86,0,0,1,.89-2.07,15.62,15.62,0,0,1,1.15-1.79c.2-.26.38-.51.54-.73s.31-.41.45-.57c.26-.31.43-.49.43-.49s.08.3.19.79.25,1.18.37,2c0,.4.1.82.12,1.26a11.4,11.4,0,0,1,0,1.31c0,.44,0,.89-.08,1.32a7.57,7.57,0,0,1-.23,1.17Z"/><path class="cls-1" d="M200.34,93.57a7.07,7.07,0,0,1,.7-.93,7.27,7.27,0,0,1,3.23-1.94c.26-.08.55-.14.83-.2l.87-.16c1.49-.23,3.17-.33,4.43-.41s2.2-.09,2.2-.09-.31.41-.85,1a18.43,18.43,0,0,1-2.2,2.13l-.41.33-.22.17-.21.15-.92.58c-.3.17-.62.32-.93.47a5.15,5.15,0,0,1-.93.33,6.81,6.81,0,0,1-4.14-.21,7.08,7.08,0,0,1-1.68-.88,2.85,2.85,0,0,1,.23-.37Z"/><path class="cls-1" d="M199.79,91.53a4.6,4.6,0,0,1-.81.78,3.61,3.61,0,0,1-.36.23,8.43,8.43,0,0,1-1-1.6,8.88,8.88,0,0,1-1-3.85,8.31,8.31,0,0,1,.16-1.65c0-.27.11-.54.18-.8s.14-.53.22-.79c.12-.44.27-.85.41-1.22,0-.1.08-.19.11-.28s.07-.18.1-.26.12-.33.18-.47c.23-.58.41-.93.41-.93a17.84,17.84,0,0,1,1,1.83c.13.27.28.57.41.89l.2.48c.06.16.13.33.19.5a16.73,16.73,0,0,1,.59,2.13c.05.28.1.55.13.82a6.51,6.51,0,0,1,0,.77,5.88,5.88,0,0,1-.36,2,5.26,5.26,0,0,1-.84,1.38Z"/><path class="cls-1" d="M211.37,81.83a6.76,6.76,0,0,1-.9,0,7.3,7.3,0,0,1-1.85-.36,2.36,2.36,0,0,1,.11-.44c0-.13.1-.29.17-.48a4.66,4.66,0,0,1,.26-.61,6.49,6.49,0,0,1,.93-1.39l.34-.36a4.12,4.12,0,0,1,.37-.35,6.22,6.22,0,0,1,.93-.69,10.21,10.21,0,0,1,1.14-.62c.4-.21.81-.4,1.24-.59.85-.37,1.74-.71,2.55-1s1.49-.55,2-.72l.82-.28s-.11.33-.34.83c-.11.25-.24.56-.41.89s-.37.69-.59,1.08-.47.76-.73,1.16l-.2.28-.22.29-.45.55c-.31.36-.64.7-1,1-.16.15-.33.3-.51.44l-.54.37a7,7,0,0,1-2.15.85,8.52,8.52,0,0,1-1,.12Z"/><path class="cls-1" d="M208.07,77.66a5.9,5.9,0,0,1-.42,1.56,5,5,0,0,1-.28.57,3.81,3.81,0,0,1-.29.41l-.29.33a9.17,9.17,0,0,1-1.37-1.27c-.18-.2-.36-.43-.55-.66a5.51,5.51,0,0,1-.56-.81,7.62,7.62,0,0,1-.87-1.93c0-.18-.09-.35-.13-.54s-.07-.37-.1-.56a10.8,10.8,0,0,1-.11-1.13c0-.75,0-1.49,0-2.14,0-.33.06-.63.08-.9s0-.52.08-.72c0-.41.09-.66.09-.66s.22.2.58.56.84.86,1.37,1.47a19.89,19.89,0,0,1,1.47,2.07,10,10,0,0,1,.62,1.16,7.43,7.43,0,0,1,.43,1.14,6.45,6.45,0,0,1,.21,1.08l0,.5v.24A1.4,1.4,0,0,1,208.07,77.66Z"/><path class="cls-1" d="M217.82,66.32a7.16,7.16,0,0,1-.95.59,7.71,7.71,0,0,1-1.78.63,6.94,6.94,0,0,1-1.87.17,5.24,5.24,0,0,1,.11-1.63,7.17,7.17,0,0,1,.21-.76,5.31,5.31,0,0,1,.31-.84,5.87,5.87,0,0,1,.5-.88,3.72,3.72,0,0,1,.33-.45l.19-.23.19-.23a27.57,27.57,0,0,1,4.14-3.47c.68-.5,1.3-.93,1.76-1.25s.73-.48.73-.48,0,.33-.13.88-.22,1.32-.43,2.17a20,20,0,0,1-.93,2.63c-.09.22-.2.44-.31.66s-.24.41-.36.6a8.51,8.51,0,0,1-.8,1.07,5.92,5.92,0,0,1-.91.82Z"/><path class="cls-1" d="M211.23,67.31a9.46,9.46,0,0,1-1.68-.85,10.39,10.39,0,0,1-1.45-1.12,7.05,7.05,0,0,1-.69-.75,6.79,6.79,0,0,1-.65-.87,7.79,7.79,0,0,1-.52-1c-.15-.35-.26-.7-.4-1.06a16.49,16.49,0,0,1-.52-2.07c-.14-.66-.24-1.22-.29-1.62s-.06-.66-.06-.66l.69.38c.43.24,1,.6,1.68,1a15.32,15.32,0,0,1,2,1.6A10,10,0,0,1,211,62.27a4,4,0,0,1,.47,1,5.22,5.22,0,0,1,.25.94,4.27,4.27,0,0,1,.08.87,3.21,3.21,0,0,1-.06.76,5.18,5.18,0,0,1-.47,1.49Z"/><path class="cls-1" d="M219.53,45.79c-.06.36-.11.72-.19,1.07a7.93,7.93,0,0,1-.65,2,7,7,0,0,1-1.4,1.88,7.07,7.07,0,0,1-1.55,1.11,6.94,6.94,0,0,1-1.75.69s-.06-.16-.13-.43a9.1,9.1,0,0,1-.21-1.16,6.38,6.38,0,0,1,.09-1.69,7,7,0,0,1,.66-2.06,7.18,7.18,0,0,1,.42-.76L215,46c.09-.13.17-.26.24-.38.41-.64.88-1.3,1.34-1.92L217.94,42c.8-1,1.4-1.73,1.4-1.73s.1.52.2,1.34c.05.46.08.94.09,1.41v1.69c0,.36,0,.71-.1,1.07Z"/><path class="cls-1" d="M206.7,50.5l-.29-.28-.28-.3a8.06,8.06,0,0,1-.52-.64,6.24,6.24,0,0,1-.46-.68c-.16-.24-.31-.47-.43-.68-.22-.37-.43-.75-.62-1.13l-.24-.52a5,5,0,0,0-.22-.46c-.27-.55-.41-.92-.41-.92s.83.14,2,.47c.28.08.62.17.93.29l1,.37a14.11,14.11,0,0,1,1.95,1,7.4,7.4,0,0,1,1.28.94,5.47,5.47,0,0,1,1.24,1.65,5.88,5.88,0,0,1,.45,1.55,4.83,4.83,0,0,1,0,1.14,3.11,3.11,0,0,1-.08.44,8.86,8.86,0,0,1-1.82-.35,8.62,8.62,0,0,1-3.46-1.85Z"/><path class="cls-1" d="M213.27,35a8.07,8.07,0,0,1-1.19,1.52,7.56,7.56,0,0,1-1.49,1.16,4.39,4.39,0,0,1-.25-.38,6.69,6.69,0,0,1-.49-1.05,5.86,5.86,0,0,1-.4-1.65,7,7,0,0,1,0-1,7.34,7.34,0,0,1,.11-1.15,11.19,11.19,0,0,1,.31-1.27c0-.22.13-.45.2-.66l.21-.66c.3-.89.62-1.79,1-2.59.16-.4.31-.79.46-1.13s.26-.64.37-.89c.21-.51.35-.81.35-.81s.15.3.38.81c.12.25.23.56.37.91s.25.75.38,1.17c.07.21.13.42.19.64a6.76,6.76,0,0,1,.17.68c.1.46.18.95.24,1.42a11.17,11.17,0,0,1,.1,1.42,10.26,10.26,0,0,1-.12,1.35,7,7,0,0,1-.82,2.18Z"/><path class="cls-1" d="M202.09,37.3a10,10,0,0,1-.91-.65c-.28-.24-.55-.49-.8-.74s-.51-.48-.73-.72l-.63-.66-.24-.29-.22-.25c-.27-.31-.42-.5-.42-.5s.31,0,.8-.07a17,17,0,0,1,2,0,17.63,17.63,0,0,1,2.52.25l.64.13c.22.05.41.11.6.17a6.45,6.45,0,0,1,1.13.44,5.92,5.92,0,0,1,.94.55,5.38,5.38,0,0,1,.69.66,5.25,5.25,0,0,1,.87,1.36,4.56,4.56,0,0,1,.32,1.09c0,.14,0,.29,0,.44a10,10,0,0,1-3.67,0,7.88,7.88,0,0,1-2-.63,6.67,6.67,0,0,1-.91-.58Z"/><path class="cls-1" d="M205.51,21.69a7.77,7.77,0,0,1-1.85,3.3,5.19,5.19,0,0,1-1.12-1.17,5.59,5.59,0,0,1-.41-.66,7.46,7.46,0,0,1-.4-.8,7.35,7.35,0,0,1-.49-2.12,17.38,17.38,0,0,1,0-2.7c.07-1,.15-1.89.25-2.76s.19-1.62.27-2.17.13-.88.13-.88a.85.85,0,0,1,.16.17l.41.51c.35.45.81,1.06,1.28,1.79a20.14,20.14,0,0,1,1.3,2.48,10.58,10.58,0,0,1,.68,2.67q0,.31,0,.63c0,.2,0,.41,0,.61a8.18,8.18,0,0,1-.2,1.1Z"/><path class="cls-1" d="M195.34,27l-.52-.2-.26-.11-.26-.11a13.84,13.84,0,0,1-1.86-1c-.57-.32-1-.63-1.37-.85l-.37-.29-.15-.1.2-.08.55-.2c.47-.16,1.13-.37,1.89-.57.38-.09.79-.18,1.21-.26l.64-.11.64-.07a9.88,9.88,0,0,1,2.49.06,5.1,5.1,0,0,1,1.88.74,4.4,4.4,0,0,1,.69.51,6.77,6.77,0,0,1,.51.56,4.56,4.56,0,0,1,.77,1.36,9,9,0,0,1-1.74.7,9.79,9.79,0,0,1-1.79.36,8.06,8.06,0,0,1-2.08-.08,6.71,6.71,0,0,1-1.07-.27Z"/><path class="cls-1" d="M193.34,13.76q-.1.24-.24.48l-.1-.05a3.2,3.2,0,0,1-.31-.14,5.37,5.37,0,0,1-1-.62,7,7,0,0,1-2.23-3.08A16.14,16.14,0,0,1,189,8.68c-.2-.75-.36-1.55-.5-2.31s-.27-1.49-.37-2.14c-.21-1.3-.31-2.23-.31-2.23s.44.28,1.09.76c.32.24.7.53,1.1.86s.8.74,1.21,1.15c.24.26.49.52.72.79l.18.21.17.22.31.44a8.83,8.83,0,0,1,1,1.81,6,6,0,0,1,.33,1.19,8.48,8.48,0,0,1,.11,1.13,8.09,8.09,0,0,1-.22,1.9,8.25,8.25,0,0,1-.43,1.3Z"/><path class="cls-1" d="M183.55,18.21c-.45-.1-.86-.2-1.24-.31s-.74-.19-1-.28c-.58-.18-.93-.33-.93-.33s.66-.53,1.67-1.18a19.52,19.52,0,0,1,1.75-1,16,16,0,0,1,2-.82,8.93,8.93,0,0,1,1.55-.35,5,5,0,0,1,3.45.87,5.43,5.43,0,0,1,.84.75,2.94,2.94,0,0,1,.21.24l.07.1s-.14.14-.39.35a9.32,9.32,0,0,1-1.09.81,10.53,10.53,0,0,1-1.63.85,8.52,8.52,0,0,1-1,.33,9.09,9.09,0,0,1-1,.2,11,11,0,0,1-3.23-.24Z"/><path class="cls-1" d="M167.74,109.62l1.06-.14.66-.09.71-.14,1.62-.29,1.77-.41c.32-.08.62-.14.94-.24l.95-.27c.64-.19,1.3-.36,1.93-.59a50.93,50.93,0,0,0,6.88-2.86l1.25-.64.5-.27.43-.25.8-.47.81-.47c.51-.32,1.21-.8,2.07-1.35A54.44,54.44,0,0,0,196,96.48,55.69,55.69,0,0,0,201.14,91c.16-.19.31-.39.45-.57l.41-.52.66-.86c.18-.24.31-.44.4-.57l.15-.2.53-.77c.17-.25.39-.54.62-.9s.48-.75.74-1.18l.44-.68q.21-.36.42-.75l.92-1.62c.31-.56.58-1.17.88-1.77.08-.15.16-.3.23-.46s.14-.31.21-.46c.13-.33.28-.63.42-1a52,52,0,0,0,2.52-7.13c.07-.25.14-.48.2-.71s.12-.44.17-.66c.09-.41.18-.77.24-1.06.13-.59.21-.93.21-.93s0-.08,0-.24.07-.39.13-.69l.18-1.07c.08-.41.18-.88.23-1.39s.13-1.07.2-1.65l.06-.45c0-.15,0-.3,0-.46,0-.31,0-.62.06-1,.13-1.28.13-2.67.17-4s0-2.77-.17-4.06l-.06-.94c0-.16,0-.31,0-.46l-.06-.45c-.07-.59-.14-1.15-.2-1.65s-.16-1-.23-1.39-.12-.78-.18-1.07-.09-.54-.13-.69l0-.25s-.08-.33-.21-.92c-.06-.29-.15-.66-.24-1.06,0-.22-.1-.44-.17-.66s-.13-.46-.2-.71a52,52,0,0,0-2.52-7.13c-.14-.31-.29-.63-.42-.94l-.21-.47c-.07-.16-.15-.3-.23-.46-.3-.6-.59-1.2-.88-1.77s-.62-1.1-.92-1.62c-.14-.25-.28-.51-.42-.75l-.44-.68c-.26-.43-.52-.83-.74-1.18s-.44-.66-.62-.9l-.53-.77-.15-.2c-.09-.13-.22-.33-.4-.56l-.66-.86c-.13-.17-.27-.33-.41-.53a5.92,5.92,0,0,0-.45-.57A56.84,56.84,0,0,0,196,18.15a54.44,54.44,0,0,0-5.86-4.66c-.86-.56-1.56-1-2.07-1.34l-.81-.48-.8-.47L186,11l-.5-.26-.39-.2h0a9.69,9.69,0,0,1-1.32,0,8.45,8.45,0,0,1-3.76-1,8.93,8.93,0,0,1-1.78-1.34l-.78-.78c-.25-.26-.47-.52-.68-.77-.39-.5-.77-.94-1-1.27s-.38-.53-.38-.53l.8,0a14.64,14.64,0,0,1,2,.08l.62.06.62.1c.42.06.84.15,1.26.25a9.29,9.29,0,0,1,2.34.87,5.8,5.8,0,0,1,1.56,1.32,4.88,4.88,0,0,1,.77,1.42,4.56,4.56,0,0,1,.28,1.1v.15l.14.07.52.27.43.26.82.47.81.48c.51.31,1.24.8,2.09,1.36a52.54,52.54,0,0,1,11.12,10.22c.18.2.31.4.47.58s.27.37.41.54l.66.86c.19.24.32.45.41.57s.15.21.15.21l.54.77c.17.26.4.55.62.91l.75,1.2.43.69c.15.23.28.49.43.75.31.52.6,1.07.93,1.64s.6,1.18.91,1.8l.23.46.21.47c.14.33.28.63.42.95a52.16,52.16,0,0,1,2.55,7.2c.07.25.14.49.2.73s.13.44.17.65c.09.42.18.78.25,1.08.13.59.2.93.2.93a2.2,2.2,0,0,1,.06.24c0,.16.07.4.12.7s.12.66.2,1.08.17.89.22,1.41.13,1.08.21,1.68c0,.14,0,.3.05.45s0,.31,0,.46c0,.31,0,.63.07,1,.13,1.3.13,2.7.17,4.09s0,2.79-.17,4.09c0,.33,0,.64-.07,1a3.15,3.15,0,0,1,0,.46c0,.14,0,.31-.05.45-.08.6-.14,1.17-.21,1.68s-.16,1-.22,1.41-.14.78-.2,1.08-.08.54-.12.7a2.1,2.1,0,0,1-.06.24l-.2.93c-.07.31-.16.66-.25,1.08,0,.2-.1.42-.17.65s-.13.47-.2.73A52.16,52.16,0,0,1,209.1,79c-.14.33-.28.64-.42,1-.07.16-.14.33-.21.47l-.23.46-.91,1.79c-.28.58-.62,1.12-.93,1.65-.15.25-.28.51-.43.75l-.43.69-.75,1.2c-.23.36-.45.66-.62.9l-.54.78a2.09,2.09,0,0,0-.15.21c-.09.14-.22.33-.41.57l-.66.86c-.14.17-.27.35-.41.53s-.29.39-.47.59a53.26,53.26,0,0,1-11.12,10.22c-.87.57-1.58,1-2.09,1.36s-.81.47-.81.47l-.82.48c-.12.08-.27.16-.43.25a5,5,0,0,1-.52.27l-1.24.66a50.81,50.81,0,0,1-7,2.89c-.64.24-1.3.4-1.94.6l-1,.27c-.31.1-.64.16-.93.24l-1.8.42c-.56.14-1.13.2-1.63.3l-.72.13-.66.09-1.07.14-.93.12,0-.53Z"/><path class="cls-1" d="M173.57,109.09s-7.14,1.93-8.74,8.89l.2-8.2,8.06-1.13Z"/><rect class="cls-2" x="84.5" y="107.5" width="52" height="20"/><path class="cls-3" d="M77.29,40.3v5H65.46v-5h3.17a11,11,0,0,0-1.25-1.73l1-.39a8.8,8.8,0,0,1,1.32,1.72l-.95.4h3.86a15.57,15.57,0,0,0,1.46-2.17l1.2.37c-.44.61-1,1.27-1.38,1.8Zm-10.8,6.08h9.83v6.45H75.07v-.78H67.69v.84h-1.2Zm.16-2h4V41.24h-4Zm1.42-2.88a9,9,0,0,1,1.67,2.06l-.77.5a9.54,9.54,0,0,0-1.62-2.15Zm-.38,5.79v1.47h7.38V47.29Zm7.38,3.81V49.63H67.69V51.1Zm1-9.86H71.83v3.14h4.23ZM72.7,43.72a15.89,15.89,0,0,0,1.62-2.17l.88.41a16.59,16.59,0,0,1-1.75,2.15Z"/><path class="cls-3" d="M82.6,45.23c0,2.19-.24,5.41-1.62,7.55a4.8,4.8,0,0,0-.92-.65c1.28-2,1.4-4.87,1.4-6.92V41.42h5.11V38.26h1.18v1.2h5.53v.93H87.75v1h5.54l.15-.05.81.22A14.55,14.55,0,0,1,93.34,44l-1-.29c.16-.36.32-.88.48-1.37H87.66v1.13l4.08-.35.06.85-4.14.37v.29c0,.46.11.62.65.62H92a9.61,9.61,0,0,0,1.61-.11c0,.32.07.69.12.93A9.06,9.06,0,0,1,92,46.2h-3.8c-1.34,0-1.69-.43-1.69-1.55v-.18l-3,.29-.08-.86,3.12-.29V42.38H82.6Zm7.57,6.11h4.08v1H82.41v-1h3.92V50.09H83.67v-3h1v2.1h1.7V46.83h1v4.51h1.78V46.83h1v2.35H92v-2.1h1v3H90.17Z"/><path class="cls-3" d="M109,40.79v12h-1.23V51.69H98.82v1.17H97.66V40.79h3.9a18.66,18.66,0,0,0,.88-2.61l1.47.28a22.53,22.53,0,0,1-1,2.33ZM98.82,42v3.63h8.94V42Zm8.94,8.53V46.78H98.82v3.73Z"/><path class="cls-3" d="M114.55,48.36a12.27,12.27,0,0,1-1.65,3.19,7.59,7.59,0,0,0-.83-.58,8.68,8.68,0,0,0,1.51-2.88Zm2-1.12V52.8h-1.17V47.24h-3.18v-1h3.18V44.54h-3.26v-1h4.41a21,21,0,0,0,.87-2.53l1.09.22c-.29.77-.59,1.64-.9,2.31h2v1h-3.07v1.68h2.9v1Zm2.83-6.34h-7v-1h3.14c-.21-.48-.48-1-.7-1.45l1.15-.31a13.34,13.34,0,0,1,.9,1.76h2.52ZM114,43.47a10.87,10.87,0,0,0-.61-2.23l1-.22a7.78,7.78,0,0,1,.65,2.17ZM118.06,48a15.93,15.93,0,0,1,1.34,2.51l-.85.48a16.38,16.38,0,0,0-1.31-2.56Zm8.53-3.29h-1.76v8.07h-1.15V44.71h-2.2v.56c0,2.29-.21,5.43-1.66,7.51a4.18,4.18,0,0,0-.91-.72c1.34-1.92,1.47-4.66,1.47-6.79v-5.5a25.53,25.53,0,0,0,5-1.25l1,.88a25.28,25.28,0,0,1-4.84,1.15v3h5.11Z"/><path class="cls-3" d="M129.94,43.85v9h-1.16v-14h5.79v5Zm0-4.15v1.22h3.51V39.7ZM133.45,43V41.77h-3.51V43Zm4.63,7.65v1.73H137V50.64H130.9v-.88h1.57V45.58h-1.18V44.7h8v.88h-1.18v4.18h1.45v.88Zm-4.54-5.06v.88H137v-.88Zm0,2.53H137v-.9h-3.45ZM137,49.76v-.9h-3.45v.9Zm4.93,1.69c0,.68-.15,1-.58,1.17a6.08,6.08,0,0,1-2.16.21,4.42,4.42,0,0,0-.34-1.07c.72,0,1.41,0,1.62,0s.29-.08.29-.31v-7.6H136v-5h5.94ZM137.11,39.7v1.22h3.64V39.7ZM140.75,43V41.77h-3.64V43Z"/><path class="cls-3" d="M152.52,49.4c2,.74,4.69,1.81,6.13,2.5l-.57,1c-1.41-.72-4.25-1.93-6.33-2.72l.5-.73h-.75c-.63,1.33-2.35,2.73-6.87,3.49a4.4,4.4,0,0,0-.67-1c3.7-.61,5.38-1.58,6.15-2.53h-6v-1h6.5a3.49,3.49,0,0,0,.06-.61v-1h1.17v1c0,.19,0,.37,0,.58h3.26a12.07,12.07,0,0,0-1.28-1l.48-.44h-.56a3.5,3.5,0,0,0-.34-.93c.74,0,1.38,0,1.56,0s.25-.07.25-.24V44.2h-3.73a7,7,0,0,1,1.7,1.41l-.78.64a7.76,7.76,0,0,0-1.73-1.52l.67-.53h-1.91v-.85h5.78V42.19h1.14v1.16h2v.85h-2v1.62c0,.56-.11.8-.54,1a4.28,4.28,0,0,1-1.25.14A10.66,10.66,0,0,1,155.93,48l-.33.36h3v1Zm-6.14-5.12A4.13,4.13,0,0,1,145,47.42a7.38,7.38,0,0,0-.92-.53,3.32,3.32,0,0,0,1.2-2.64v-.14h-1.15v-1h3.51V41.91H144.9V38.63h1V41h1.73V38.28h1.1v9h-1.1V44.11h-1.28Zm11.41-4.91c-1.43,2.45-4.69,3.5-8,4a2.66,2.66,0,0,0-.5-.75,17,17,0,0,0,4.5-1.08A11.59,11.59,0,0,0,152.23,40a18.52,18.52,0,0,1-2.12.78,3,3,0,0,0-.66-.68,11.48,11.48,0,0,0,4.3-1.94l1,.22a5.32,5.32,0,0,1-.81.64h3l.2,0Zm-5.22,2.24c-1,.1-1.86.16-2.67.22l-.13-.7,2.78-.18Zm.51-1.81a10.3,10.3,0,0,1,1.48,1.36,6.41,6.41,0,0,0,1.77-1.36Z"/><path class="cls-3" d="M41.82,66.06A25.59,25.59,0,0,1,46,70.7l-1,.72a11.31,11.31,0,0,0-1-1.38c-9.14.51-10.07.55-10.69.77A8.9,8.9,0,0,0,33,69.64a3,3,0,0,0,1.3-.94A26.27,26.27,0,0,0,38,64.18l1.17.53A34.64,34.64,0,0,1,35,69.42L43.2,69a30.64,30.64,0,0,0-2.33-2.36Zm-7.6,6.09H44.4v6.66H43.15V78H35.42v.87h-1.2Zm1.2,1.14v3.54h7.73V73.29Z"/><path class="cls-3" d="M51.93,71.88A21.71,21.71,0,0,1,50.62,76c.3.18.68.47,1.28.83a8.48,8.48,0,0,0,4.46.8c2,0,4.64-.16,6.44-.33a4.16,4.16,0,0,0-.37,1.23c-1.19.08-4.23.18-6.12.18a8.85,8.85,0,0,1-4.67-.88c-.64-.39-1.23-.93-1.6-.93s-.88,1-1.34,2l-.84-1.08a7.16,7.16,0,0,1,1.6-1.77,13.91,13.91,0,0,0,1.16-3.33h-2.1c.45-1,.94-2.31,1.39-3.57H48.12V68.11H51.4c-.4,1.15-.9,2.51-1.33,3.6h1.11l.2,0Zm-2.16-4.62c-.19-.68-.56-1.78-.82-2.61l1-.32c.29.83.66,1.89.85,2.57Zm5.07,1.2h-2.7v-.91h4.49V66.36H53.11v-.9h3.52V64.25H57.8v1.21h3.56v.9H57.8v1.19h4.61v.91h-2.8l.71.21c-.31.54-.6,1.1-.87,1.53H62.2v.91H57.8v1.06h3.8v.88H57.8v1.19h4.48v.92H57.8v1.62H56.63V75.16H52.31v-.92h4.32V73.05H53v-.88h3.61V71.11H52.47V70.2h2.31a5,5,0,0,0-.71-1.55ZM58.41,70a10.72,10.72,0,0,0,.71-1.58h-4A5,5,0,0,1,55.88,70l-.59.16h3.63Z"/><path class="cls-3" d="M70.67,77.56c0,.61-.13.89-.56,1.06a6.16,6.16,0,0,1-2.1.19,4.33,4.33,0,0,0-.39-1c.77,0,1.43,0,1.64,0s.27-.07.27-.28V75.1l-3,1.76-.42-1a6.23,6.23,0,0,1-1.15,3,3.8,3.8,0,0,0-.82-.83,7.06,7.06,0,0,0,1-4.26V69.9h5.56Zm-1-12.16a21.37,21.37,0,0,1,2.1,3.54l-1,.46a10.1,10.1,0,0,0-.51-1.09c-4.34.36-4.9.42-5.26.6a7.51,7.51,0,0,0-.39-1.12,1.88,1.88,0,0,0,.85-.63,16.74,16.74,0,0,0,2-2.93l1.19.4a21.91,21.91,0,0,1-2.23,3l3.28-.23c-.32-.54-.65-1.09-1-1.58Zm-3.42,8.42a16.37,16.37,0,0,1-.13,2c.89-.4,2.16-1,3.44-1.68V70.92H66.22Zm.75-2a25.56,25.56,0,0,1,2.54,1.66l-.64.66a24.86,24.86,0,0,0-2.53-1.73Zm7-.71c-1.41,0-1.8-.5-1.8-1.84v-5h1.17v2.21H77.6v1.05H73.29v1.81c0,.58.13.77.64.77h2.95A6.81,6.81,0,0,0,78.2,70c0,.32.08.77.13,1a7.27,7.27,0,0,1-1.42.1Zm2.89,6.53c.67,0,.79-.3.87-2a3.37,3.37,0,0,0,1,.45c-.14,2.08-.49,2.63-1.82,2.63H74.08c-1.56,0-2-.37-2-1.68V71.66h1.17v1.9h4.48v1.08H73.29V77c0,.52.15.62.9.62Z"/><path class="cls-3" d="M82.65,71.24A27.72,27.72,0,0,0,80,69.53l.69-.83c.86.48,2.08,1.15,2.7,1.58Zm1,2.26c-.66,1.68-1.56,3.65-2.31,5.12L80.29,78a50.2,50.2,0,0,0,2.44-5.13Zm-.26-6.44c-.61-.48-1.79-1.26-2.66-1.82l.69-.82a29.93,29.93,0,0,1,2.67,1.7Zm2.5,2.33c0,2.78-.27,6.73-2.16,9.41a4,4,0,0,0-1-.63c1.81-2.56,2-6.16,2-8.78V65h9.73V66.1H85.9Zm2.54,5.23a16.17,16.17,0,0,1-2,3.28,9.87,9.87,0,0,0-1-.61,10.81,10.81,0,0,0,1.9-3Zm2.37-1.18v4.17c0,.6-.09.9-.54,1.08a6.79,6.79,0,0,1-2.18.16,4.15,4.15,0,0,0-.34-1c.77,0,1.48,0,1.65,0s.27-.07.27-.24V73.44H86.81V68h2.42c.17-.52.36-1.17.46-1.62L91,66.6c-.22.46-.45.93-.66,1.35h3.49v5.49Zm-2.93-3.19h4.87V68.86H87.88Zm0,2.27h4.87V71.11H87.88Zm5,1.68c.62,1,1.42,2.29,1.82,3.06l-1.09.48a30.4,30.4,0,0,0-1.76-3.14Z"/><path class="cls-3" d="M110.52,74v1.11H96.1V74h1.62l-.3-8.45a26.2,26.2,0,0,0,3-1.23l.57,1c-.73.31-1.61.61-2.43.87L98.58,68h2.15v1H98.62l.06,2h2.11v1H98.73l.06,2h9.08c0-.56.08-1.23.11-1.92H105.9v-1H108c0-.64,0-1.29.08-2H106v-1h2.13c0-.69,0-1.36,0-2h-2.31v-1h3.4c0,2.8-.1,6.59-.24,9Zm-8.73,2.08A25.25,25.25,0,0,1,97,78.83a10.28,10.28,0,0,0-.71-.9,18.37,18.37,0,0,0,4.45-2.56ZM103,70.36a8.09,8.09,0,0,1-1,3,5.12,5.12,0,0,0-.83-.52,6.07,6.07,0,0,0,.88-2.64Zm1.1-.85h-2.54V64.34h1v1.49h2.64v1h-2.64v1.71h2.09v0h.44v4.21c0,.5-.1.7-.45.86a5,5,0,0,1-1.68.15,3.14,3.14,0,0,0-.31-.82c.56,0,1,0,1.2,0s.21-.07.21-.21Zm1.38,5.81a40,40,0,0,1,4.66,2.56l-.79.9a36.66,36.66,0,0,0-4.53-2.64Z"/><path class="cls-3" d="M115.62,66.65a13.22,13.22,0,0,1-2.73,3.14,8.35,8.35,0,0,0-.87-.93,11.42,11.42,0,0,0,3.57-4.63l1.16.32c-.18.4-.36.77-.57,1.15H126v1Zm.84,8.87a10,10,0,0,1-3.32,3.26,5.09,5.09,0,0,0-.75-.86,8.37,8.37,0,0,0,3.19-2.77Zm1.58-.85v4.18h-1.13V74.67h-4.29v-1h4.29V70.92H118v2.79h4.2v1Zm5.92-5c0,4.94.12,8.05,1.4,8.05.33,0,.41-1,.44-2.32a4.31,4.31,0,0,0,.82.7c-.1,2.1-.35,2.79-1.33,2.79-2.22,0-2.46-3.11-2.5-8.28h-9.13v-.94Zm-9.36,1.45a7.05,7.05,0,0,1,1.28,2l-.94.4a7.54,7.54,0,0,0-1.24-2Zm.69-2.49v-.92h9.51v.92Zm4.1,6.59a21.25,21.25,0,0,1,3,2.58l-.76.72a20.29,20.29,0,0,0-2.94-2.68Zm2-3.68c-.58.75-1.23,1.58-1.75,2.13l-.76-.34a16.26,16.26,0,0,0,1.45-2.19Z"/><path class="cls-3" d="M132.12,64.63a28,28,0,0,1-1.31,3.51V78.88h-1.14V70.33A13,13,0,0,1,128.52,72a5.84,5.84,0,0,0-.64-1.2A19.09,19.09,0,0,0,131,64.33Zm0,3.09h1.06v8h-1.06Zm6.47,7c-.34,1.47-1.41,3.06-4.52,4.19a4.5,4.5,0,0,0-.77-.88c2.77-.89,3.77-2.14,4.08-3.31H133.8v-1h3.73V71.58h-1.74a9.46,9.46,0,0,1-1.19,1.74,10.72,10.72,0,0,0-.93-.62,9.12,9.12,0,0,0,2-3.65l1.07.26a12.54,12.54,0,0,1-.46,1.26H142v1H138.7v2.08h3.84v1Zm4-5.75h-8.75v-1h5.75c.12-.63.22-1.31.32-1.91h-5.17V65h5.39l.19-.07.82.1c-.11.93-.27,2-.42,2.88h1.87Zm-3.1,6c1.1.94,2.58,2.29,3.34,3.09l-.88.7c-.7-.81-2.16-2.19-3.28-3.2Z"/><path class="cls-3" d="M149.71,73.1l-1.73.48v5.27h-1.16v-5c-.84.24-1.68.45-2.4.62l-.32-1.18c.76-.16,1.7-.39,2.72-.61v-4h-1.36a13.26,13.26,0,0,1-.73,2.51,5.81,5.81,0,0,0-.9-.37A17.94,17.94,0,0,0,145,65.42l.94.14c-.08.66-.16,1.31-.27,2h1.15V64.25H148v3.26h1.61v1.14H148v3.76l1.6-.4Zm8.8.14h-1.84v4.13c0,.69-.15,1-.63,1.2a6.93,6.93,0,0,1-2.4.23,5.4,5.4,0,0,0-.4-1.17c.9,0,1.7,0,2,0s.3-.06.3-.28V73.24H150v-1.1h5.51V70.63h1.17v1.51h1.84Zm-5-6.18h-3.36V66h3.36V64.23h1.17V66h3.45v1.1h-3.45v2h3V70.2h-6.85V69.08h2.69Zm-1.64,6.65A16.67,16.67,0,0,1,154,76.25l-1,.59a18.18,18.18,0,0,0-2-2.59Z"/><path class="cls-3" d="M167.27,71.88s0,.37,0,.51c-.19,4-.35,5.45-.79,5.94a1.25,1.25,0,0,1-1,.45,15.56,15.56,0,0,1-1.95,0,2.55,2.55,0,0,0-.34-1c.78.08,1.54.08,1.83.08a.63.63,0,0,0,.54-.18c.29-.31.45-1.53.59-4.68H163.5c-.36,2.32-1.11,4.52-2.79,5.92a3,3,0,0,0-.82-.82c2.18-1.73,2.57-5,2.73-7.89h-1.75V65h6.29v5.2h-3.39c0,.56-.08,1.14-.15,1.71ZM162,69.11H166V66H162ZM170,75h-1.16V66.15H170Zm3.92-10.41V77.28c0,.8-.23,1.17-.72,1.37a9.92,9.92,0,0,1-2.88.21,4.74,4.74,0,0,0-.44-1.2c1.13,0,2.13,0,2.44,0s.41-.1.41-.4V64.55Z"/><path class="cls-3" d="M184.52,75.4c2,.74,4.69,1.81,6.13,2.5l-.57.95c-1.41-.72-4.25-1.93-6.33-2.73l.5-.72h-.75c-.63,1.33-2.35,2.73-6.87,3.49a4.4,4.4,0,0,0-.67-1c3.7-.6,5.38-1.58,6.15-2.53h-6v-1h6.5a3.49,3.49,0,0,0,.06-.61v-1h1.17v1c0,.19,0,.37,0,.58h3.26a12.07,12.07,0,0,0-1.28-1l.48-.44h-.56a3.5,3.5,0,0,0-.34-.93c.74,0,1.38,0,1.56,0s.25-.07.25-.24V70.2h-3.73a7,7,0,0,1,1.7,1.41l-.78.64a7.76,7.76,0,0,0-1.73-1.52l.67-.53h-1.91v-.85h5.78V68.19h1.14v1.16h2v.85h-2v1.62c0,.56-.11.8-.54,1a4.28,4.28,0,0,1-1.25.14A10.66,10.66,0,0,1,187.93,74l-.33.36h3v1Zm-6.14-5.12A4.13,4.13,0,0,1,177,73.42a7.38,7.38,0,0,0-.92-.53,3.32,3.32,0,0,0,1.2-2.64v-.14h-1.15v-1h3.51V67.91H176.9V64.63h1V67h1.73V64.28h1.1v9h-1.1V70.11h-1.28Zm11.41-4.91c-1.43,2.45-4.69,3.5-8,4a2.66,2.66,0,0,0-.5-.75,17,17,0,0,0,4.5-1.08A11.59,11.59,0,0,0,184.23,66a18.52,18.52,0,0,1-2.12.78,3,3,0,0,0-.66-.68,11.48,11.48,0,0,0,4.3-1.94l1,.22a5.32,5.32,0,0,1-.81.64h3l.2,0Zm-5.22,2.24c-1,.1-1.86.16-2.67.22l-.13-.7,2.78-.18Zm.51-1.81a10.3,10.3,0,0,1,1.48,1.36,6.41,6.41,0,0,0,1.77-1.36Z"/><path class="cls-1" d="M99.9,112.06a12.63,12.63,0,0,1-1.27,1.87,10.25,10.25,0,0,1,.92,4.83c0,2-.14,3.75-.68,4.54a1.19,1.19,0,0,1-.76.46,6.42,6.42,0,0,1-1.61.07,2.06,2.06,0,0,0-.31-1,9.63,9.63,0,0,0,1.52,0,.6.6,0,0,0,.43-.25c.34-.46.46-2,.46-3.84,0-.25,0-.5,0-.76a11.2,11.2,0,0,1-2.31,2.71,3.48,3.48,0,0,0-.59-.88,8.93,8.93,0,0,0,2.76-3.37,6.61,6.61,0,0,0-.51-1.73,12.35,12.35,0,0,1-1.75,1.62,4.23,4.23,0,0,0-.59-.94,9.12,9.12,0,0,0,1.88-1.58,9,9,0,0,0-1.41-1.63l.7-.57a9.45,9.45,0,0,1,1.34,1.47,8.52,8.52,0,0,0,1-1.51Zm7.92,8.46a7.19,7.19,0,0,1-2.65,2,19,19,0,0,0,3.48.65,3.78,3.78,0,0,0-.61.83,19.83,19.83,0,0,1-4.07-1,22,22,0,0,1-4.14,1,2.78,2.78,0,0,0-.47-.82,21.1,21.1,0,0,0,3.47-.69,7.52,7.52,0,0,1-2.08-1.41l.42-.19h-.93v-.8H107l.19,0Zm-5.42-7.39h-2.33v-.82h2.33v-1h.94v2.65l.72-.4a15.25,15.25,0,0,1,1.11,1.25h2.77v.69h-3v.66h2.67v.61h-2.67v.72h2.67v.61h-2.67v.73h3.19v.69h-6.36v.38h-.91v-3.7c-.22.26-.43.47-.64.68a9.31,9.31,0,0,0-.72-.64,8.38,8.38,0,0,0,2-2.54l.88.28a8.45,8.45,0,0,1-.45.83h2.17c-.22-.28-.48-.59-.71-.83v0h-.94Zm1.58,2.34h-2.23v.66H104Zm0,1.27h-2.23v.72H104Zm0,1.33h-2.23v.73H104Zm-2.17,2.87a7.09,7.09,0,0,0,2.19,1.22,7.66,7.66,0,0,0,2.18-1.22Zm4-6.93h-1v-2.73h1v1h2.68v.8H105.8Z"/><path class="cls-1" d="M120,121c1.75.65,4.1,1.58,5.36,2.19l-.5.82c-1.23-.63-3.71-1.68-5.53-2.38l.43-.63h-.66c-.54,1.16-2.06,2.38-6,3a3.35,3.35,0,0,0-.59-.83c3.24-.54,4.71-1.39,5.38-2.22h-5.26v-.88h5.68a2.05,2.05,0,0,0,.06-.53v-.86h1v.88a4.49,4.49,0,0,1,0,.51h2.86a11.37,11.37,0,0,0-1.12-.91l.42-.38H121a3.29,3.29,0,0,0-.29-.81c.64,0,1.2,0,1.36,0s.22-.06.22-.21v-1.39H119a6.24,6.24,0,0,1,1.48,1.23l-.69.56A6.72,6.72,0,0,0,118.3,117l.59-.46h-1.67v-.74h5.06v-1h1v1H125v.74h-1.77v1.41c0,.49-.09.7-.47.84a3.61,3.61,0,0,1-1.09.13,8.52,8.52,0,0,1,1.24,1l-.29.31h2.62V121Zm-5.38-4.48a3.57,3.57,0,0,1-1.19,2.74,5.58,5.58,0,0,0-.8-.46,2.91,2.91,0,0,0,1.05-2.31v-.12h-1v-.86h3.07v-1.06H113.3v-2.88h.9v2h1.51v-2.34h1v7.88h-1v-2.78h-1.12Zm10-4.3c-1.25,2.14-4.11,3.07-7,3.47a2.14,2.14,0,0,0-.43-.66,14.65,14.65,0,0,0,3.94-.93,10.51,10.51,0,0,0-1.36-1.29,17.55,17.55,0,0,1-1.87.68,2.71,2.71,0,0,0-.57-.6,10.11,10.11,0,0,0,3.77-1.69l.91.19a5.28,5.28,0,0,1-.72.56h2.61l.18,0Zm-4.57,2-2.34.2-.11-.62,2.44-.15Zm.45-1.58a8.24,8.24,0,0,1,1.29,1.19,5.85,5.85,0,0,0,1.55-1.19Z"/></svg>